#!OML:ASF G:\JayActor3\Patient Classification 1\Patient 1\Session 6\male.ASF
:FULLY-SPECIFIED
:DEGREES
873
root 9.28757 14.8726 -5.38141 11.6451 -11.9382 1.30221
lowerback 29.5984 -0.184657 6.98932
upperback 11.8723 1.57561 2.20432
thorax -2.71219 0.85864 -2.05001
lowerneck 6.86686 -10.7096 -1.38775
upperneck -18.7888 -15.7001 -2.02698
head -6.94426 -7.41743 0.837188
rclavicle 1.11319e-014 1.11319e-014
rhumerus 32.673 -9.62687 -51.9916
rradius 48.3651
rwrist 25.3969
rhand -57.3287 11.1863
rfingers 7.12502
rthumb -29.6053 -16.4717
lclavicle 1.11319e-014 1.11319e-014
lhumerus 20.1966 -4.4646 63.1155
lradius 120.428
lwrist 4.44745
lhand -51.9064 -29.7428
lfingers 7.12502
lthumb -24.4177 -1.2788
rfemur -56.0231 -11.4979 24.6655
rtibia 70.2679
rfoot -27.4759 -14.8568
rtoes -0.954054
lfemur -49.5347 2.63214 -27.151
ltibia 61.6288
lfoot -22.351 6.22854
ltoes -6.01725
874
root 9.28649 14.9204 -5.36073 11.4593 -12.0303 1.16248
lowerback 29.2472 -0.159922 6.96898
upperback 11.7878 1.57568 2.16592
thorax -2.64862 0.86052 -2.07667
lowerneck 6.86937 -10.6917 -1.40694
upperneck -18.7188 -15.6629 -2.00604
head -6.91828 -7.40065 0.840339
rclavicle 1.74931e-014 -7.95139e-016
rhumerus 32.5985 -9.4338 -51.9168
rradius 48.5533
rwrist 25.3041
rhand -57.3086 11.403
rfingers 7.12502
rthumb -29.5861 -16.2584
lclavicle 1.74931e-014 -7.95139e-016
lhumerus 20.1165 -4.60501 63.1932
lradius 120.4
lwrist 4.41099
lhand -51.8946 -29.725
lfingers 7.12502
lthumb -24.4065 -1.25953
rfemur -55.2223 -11.2673 24.6537
rtibia 69.5415
rfoot -27.3786 -14.9218
rtoes -0.764632
lfemur -48.7787 2.78175 -26.9842
ltibia 60.9147
lfoot -22.2135 6.17285
ltoes -5.91856
875
root 9.28524 14.9672 -5.3399 11.2745 -12.126 1.02921
lowerback 28.9001 -0.134189 6.9397
upperback 11.7021 1.57546 2.12829
thorax -2.58783 0.861839 -2.09725
lowerneck 6.88089 -10.6713 -1.42474
upperneck -18.6576 -15.6227 -1.98439
head -6.8968 -7.38217 0.844247
rclavicle -2.06736e-014 -2.8625e-014
rhumerus 32.5203 -9.22961 -51.8341
rradius 48.7528
rwrist 25.2129
rhand -57.2892 11.6001
rfingers 7.12502
rthumb -29.5676 -16.0646
lclavicle -2.06736e-014 -2.8625e-014
lhumerus 20.0343 -4.74191 63.2681
lradius 120.374
lwrist 4.39958
lhand -51.892 -29.7093
lfingers 7.12502
lthumb -24.404 -1.24342
rfemur -54.4296 -11.0351 24.6383
rtibia 68.8214
rfoot -27.2811 -14.9915
rtoes -0.594012
lfemur -48.0264 2.93218 -26.8245
ltibia 60.2024
lfoot -22.0773 6.11838
ltoes -5.82078
876
root 9.28384 15.0131 -5.31885 11.0895 -12.2243 0.901384
lowerback 28.5567 -0.106682 6.9013
upperback 11.6159 1.576 2.09392
thorax -2.52891 0.863079 -2.10923
lowerneck 6.90169 -10.6496 -1.44055
upperneck -18.606 -15.5823 -1.96488
head -6.88042 -7.36299 0.848224
rclavicle -3.02153e-014 -4.21423e-014
rhumerus 32.439 -9.01783 -51.7427
rradius 48.9621
rwrist 25.1238
rhand -57.2675 11.7434
rfingers 7.12502
rthumb -29.5468 -15.925
lclavicle -3.02153e-014 -4.21423e-014
lhumerus 19.951 -4.87669 63.3428
lradius 120.35
lwrist 4.41012
lhand -51.8927 -29.6998
lfingers 7.12502
lthumb -24.4047 -1.23404
rfemur -53.6437 -10.8049 24.6207
rtibia 68.108
rfoot -27.183 -15.0633
rtoes -0.443222
lfemur -47.277 3.08238 -26.671
ltibia 59.4932
lfoot -21.9428 6.06635
ltoes -5.7267
877
root 9.28233 15.0579 -5.2975 10.9036 -12.3237 0.778174
lowerback 28.2162 -0.0775371 6.85594
upperback 11.53 1.57768 2.06363
thorax -2.47043 0.864522 -2.113
lowerneck 6.93015 -10.6282 -1.4548
upperneck -18.5621 -15.5438 -1.94865
head -6.86827 -7.34415 0.85197
rclavicle -7.95139e-015 1.11319e-014
rhumerus 32.3549 -8.80247 -51.6428
rradius 49.1797
rwrist 25.0364
rhand -57.2394 11.8167
rfingers 7.12502
rthumb -29.5201 -15.8564
lclavicle -7.95139e-015 1.11319e-014
lhumerus 19.8685 -5.01055 63.4188
lradius 120.326
lwrist 4.43558
lhand -51.8933 -29.6943
lfingers 7.12502
lthumb -24.4052 -1.22863
rfemur -52.8635 -10.5796 24.6019
rtibia 67.4015
rfoot -27.0843 -15.1346
rtoes -0.310224
lfemur -46.5296 3.2315 -26.523
ltibia 58.7882
lfoot -21.8103 6.01752
ltoes -5.63825
878
root 9.28073 15.1018 -5.27585 10.7172 -12.4226 0.658275
lowerback 27.8767 -0.0475554 6.80739
upperback 11.4448 1.58028 2.03707
thorax -2.41092 0.866257 -2.11102
lowerneck 6.96325 -10.6083 -1.46864
upperneck -18.5212 -15.5084 -1.93517
head -6.85823 -7.32643 0.855517
rclavicle -1.59028e-014 -1.27222e-014
rhumerus 32.268 -8.58714 -51.5368
rradius 49.4038
rwrist 24.9494
rhand -57.2011 11.8218
rfingers 7.12502
rthumb -29.4835 -15.8577
lclavicle -1.59028e-014 -1.27222e-014
lhumerus 19.7886 -5.14466 63.4959
lradius 120.299
lwrist 4.46678
lhand -51.8889 -29.6886
lfingers 7.12502
lthumb -24.401 -1.22232
rfemur -52.0892 -10.3611 24.5833
rtibia 66.7021
rfoot -26.9854 -15.2034
rtoes -0.189832
lfemur -45.7849 3.3798 -26.3794
ltibia 58.0885
lfoot -21.6797 5.97139
ltoes -5.55854
879
root 9.27904 15.1446 -5.25391 10.5309 -12.5202 0.540366
lowerback 27.5368 -0.0174725 6.75902
upperback 11.3608 1.58353 2.01361
thorax -2.34916 0.86832 -2.1058
lowerneck 6.99696 -10.5906 -1.48355
upperneck -18.4783 -15.4765 -1.92366
head -6.84775 -7.31024 0.858859
rclavicle 1.98785e-014 1.43125e-014
rhumerus 32.1789 -8.37389 -51.4263
rradius 49.6329
rwrist 24.8607
rhand -57.1503 11.7707
rfingers 7.12502
rthumb -29.4349 -15.9174
lclavicle 1.98785e-014 1.43125e-014
lhumerus 19.7127 -5.27944 63.5739
lradius 120.27
lwrist 4.49493
lhand -51.8786 -29.6762
lfingers 7.12502
lthumb -24.3912 -1.20861
rfemur -51.3213 -10.149 24.5664
rtibia 66.0102
rfoot -26.887 -15.2682
rtoes -0.0745796
lfemur -45.0441 3.52828 -26.2387
ltibia 57.3952
lfoot -21.5501 5.92691
ltoes -5.49066
880
root 9.27723 15.1865 -5.23178 10.3465 -12.616 0.423243
lowerback 27.1945 0.012167 6.71312
upperback 11.2776 1.58709 1.99232
thorax -2.28435 0.870665 -2.0995
lowerneck 7.02813 -10.5753 -1.50135
upperneck -18.4291 -15.4479 -1.91255
head -6.83467 -7.29571 0.862338
rclavicle 7.95139e-016 -1.11319e-014
rhumerus 32.0881 -8.16353 -51.3139
rradius 49.8661
rwrist 24.7691
rhand -57.0867 11.6767
rfingers 7.12502
rthumb -29.3743 -16.022
lclavicle 7.95139e-016 -1.11319e-014
lhumerus 19.6405 -5.4156 63.6517
lradius 120.236
lwrist 4.51389
lhand -51.8631 -29.6521
lfingers 7.12502
lthumb -24.3763 -1.18249
rfemur -50.5622 -9.94147 24.5529
rtibia 65.3261
rfoot -26.7895 -15.3295
rtoes 0.0402141
lfemur -44.31 3.67825 -26.0993
ltibia 56.7097
lfoot -21.4205 5.88139
ltoes -5.4336
881
root 9.27526 15.2274 -5.20958 10.1662 -12.7106 0.306965
lowerback 26.8486 0.0414085 6.66845
upperback 11.1947 1.59064 1.97301
thorax -2.21668 0.873089 -2.09155
lowerneck 7.05361 -10.562 -1.52313
upperneck -18.371 -15.4219 -1.90139
head -6.81744 -7.28259 0.865872
rclavicle 1.59028e-014 0
rhumerus 31.9973 -7.9552 -51.2012
rradius 50.1026
rwrist 24.6741
rhand -57.0126 11.5529
rfingers 7.12502
rthumb -29.3035 -16.1583
lclavicle 1.59028e-014 0
lhumerus 19.5704 -5.55273 63.7297
lradius 120.199
lwrist 4.52184
lhand -51.8418 -29.619
lfingers 7.12502
lthumb -24.3559 -1.14666
rfemur -49.815 -9.73663 24.5435
rtibia 64.6506
rfoot -26.693 -15.3891
rtoes 0.15594
lfemur -43.586 3.83203 -25.961
ltibia 56.0329
lfoot -21.2892 5.83148
ltoes -5.38727
882
root 9.27308 15.2674 -5.18739 9.99074 -12.8046 0.191166
lowerback 26.4998 0.0704425 6.62404
upperback 11.1116 1.59425 1.95557
thorax -2.14701 0.875557 -2.08157
lowerneck 7.07265 -10.5503 -1.54918
upperneck -18.3045 -15.3977 -1.88923
head -6.79598 -7.27064 0.869704
rclavicle 3.97569e-015 -3.97569e-014
rhumerus 31.9075 -7.74823 -51.0891
rradius 50.3419
rwrist 24.5768
rhand -56.9309 11.41
rfingers 7.12502
rthumb -29.2255 -16.3147
lclavicle 3.97569e-015 -3.97569e-014
lhumerus 19.5006 -5.69089 63.8077
lradius 120.159
lwrist 4.52135
lhand -51.8168 -29.5813
lfingers 7.12502
lthumb -24.3319 -1.10579
rfemur -49.0811 -9.53277 24.5389
rtibia 63.9841
rfoot -26.598 -15.4486
rtoes 0.273206
lfemur -42.8741 3.99095 -25.823
ltibia 55.3658
lfoot -21.1553 5.77435
ltoes -5.34703
883
root 9.27069 15.3063 -5.16526 9.82026 -12.8991 0.0775078
lowerback 26.1488 0.0994437 6.57743
upperback 11.0279 1.59762 1.93933
thorax -2.07629 0.877832 -2.06885
lowerneck 7.0865 -10.5399 -1.57933
upperneck -18.2327 -15.3749 -1.8747
head -6.77143 -7.25958 0.874385
rclavicle -2.94201e-014 -3.10104e-014
rhumerus 31.8199 -7.54255 -50.9796
rradius 50.5836
rwrist 24.4806
rhand -56.8464 11.2565
rfingers 7.12502
rthumb -29.1448 -16.4823
lclavicle -2.94201e-014 -3.10104e-014
lhumerus 19.4295 -5.8296 63.8856
lradius 120.117
lwrist 4.51633
lhand -51.7912 -29.5461
lfingers 7.12502
lthumb -24.3073 -1.06726
rfemur -48.3616 -9.32964 24.5379
rtibia 63.3272
rfoot -26.5045 -15.5097
rtoes 0.390957
lfemur -42.1751 4.15527 -25.6868
ltibia 54.7083
lfoot -21.0185 5.70853
ltoes -5.30782
884
root 9.2681 15.3444 -5.14315 9.65374 -12.995 -0.0327235
lowerback 25.7971 0.128381 6.52756
upperback 10.9435 1.60055 1.92332
thorax -2.00533 0.879786 -2.05381
lowerneck 7.09825 -10.5305 -1.61186
upperneck -18.1611 -15.3532 -1.85701
head -6.74615 -7.24925 0.88031
rclavicle -7.15625e-015 -7.95139e-016
rhumerus 31.735 -7.33833 -50.8741
rradius 50.8266
rwrist 24.3883
rhand -56.7622 11.1065
rfingers 7.12502
rthumb -29.0644 -16.6461
lclavicle -7.15625e-015 -7.95139e-016
lhumerus 19.3564 -5.96827 63.9627
lradius 120.074
lwrist 4.51108
lhand -51.7666 -29.5227
lfingers 7.12502
lthumb -24.2838 -1.0407
rfemur -47.6554 -9.12777 24.5389
rtibia 62.6797
rfoot -26.4132 -15.5722
rtoes 0.510172
lfemur -41.4877 4.32418 -25.5537
ltibia 54.0599
lfoot -20.8796 5.63517
ltoes -5.26674
885
root 9.26537 15.3816 -5.121 9.49004 -13.0931 -0.139443
lowerback 25.4463 0.156741 6.47507
upperback 10.8585 1.60267 1.90694
thorax -1.93486 0.881234 -2.03744
lowerneck 7.11188 -10.5216 -1.64523
upperneck -18.0952 -15.3323 -1.836
head -6.72275 -7.23942 0.887771
rclavicle -7.95139e-016 1.90833e-014
rhumerus 31.6536 -7.13462 -50.7741
rradius 51.0706
rwrist 24.3023
rhand -56.6822 10.9674
rfingers 7.12502
rthumb -28.988 -16.7985
lclavicle -7.95139e-016 1.90833e-014
lhumerus 19.2805 -6.10539 64.0388
lradius 120.03
lwrist 4.50824
lhand -51.7472 -29.515
lfingers 7.12502
lthumb -24.2652 -1.03051
rfemur -46.9604 -8.92812 24.5413
rtibia 62.041
rfoot -26.3245 -15.6353
rtoes 0.632171
lfemur -40.8094 4.49528 -25.4237
ltibia 53.4194
lfoot -20.7402 5.55797
ltoes -5.22178
886
root 9.26257 15.418 -5.09874 9.32828 -13.1941 -0.24296
lowerback 25.0977 0.184077 6.42146
upperback 10.7726 1.60381 1.88957
thorax -1.86551 0.882135 -2.02121
lowerneck 7.13166 -10.5129 -1.67773
upperneck -18.0403 -15.3126 -1.81284
head -6.70384 -7.2299 0.896669
rclavicle 1.51076e-014 2.78299e-014
rhumerus 31.5756 -6.92975 -50.6804
rradius 51.3154
rwrist 24.2227
rhand -56.6096 10.8437
rfingers 7.12502
rthumb -28.9186 -16.934
lclavicle 1.51076e-014 2.78299e-014
lhumerus 19.2014 -6.24034 64.1144
lradius 119.986
lwrist 4.50681
lhand -51.7333 -29.524
lfingers 7.12502
lthumb -24.2518 -1.03776
rfemur -46.2744 -8.73176 24.545
rtibia 61.41
rfoot -26.2382 -15.697
rtoes 0.758096
lfemur -40.1377 4.66614 -25.2964
ltibia 52.7857
lfoot -20.6025 5.48174
ltoes -5.17362
